<svg width="15" height="15" viewBox="0 0 15 15" fill="none" xmlns="http://www.w3.org/2000/svg">
<g id="Iconly/Light-Outline/Time Square">
<g id="Time Square">
<path id="Fill 1" fill-rule="evenodd" clip-rule="evenodd" d="M5.18324 2.27649C3.70325 2.27649 2.74682 3.29026 2.74682 4.85975V9.63783C2.74682 11.2073 3.70325 12.2211 5.18324 12.2211H10.2538C11.7344 12.2211 12.6914 11.2073 12.6914 9.63783V4.85975C12.6914 3.29026 11.735 2.27649 10.2544 2.27649H5.18324ZM10.2538 13.0985H5.18321C3.20073 13.0985 1.86932 11.7075 1.86932 9.63783V4.85975C1.86932 2.7901 3.20073 1.39903 5.18321 1.39903H10.2544C12.2368 1.39903 13.5688 2.7901 13.5688 4.85975V9.63783C13.5688 11.7075 12.2368 13.0985 10.2538 13.0985Z" fill="#EC1146"/>
<path id="Fill 3" fill-rule="evenodd" clip-rule="evenodd" d="M9.70223 8.86776C9.6256 8.86776 9.54838 8.84787 9.4776 8.80634L7.49395 7.62293C7.36174 7.54338 7.27985 7.40006 7.27985 7.24621V4.69455C7.27985 4.45237 7.4764 4.25581 7.71858 4.25581C7.96076 4.25581 8.15731 4.45237 8.15731 4.69455V6.99701L9.92744 8.05172C10.1351 8.17632 10.2036 8.44541 10.0795 8.65366C9.99706 8.79113 9.8514 8.86776 9.70223 8.86776Z" fill="black"/>
</g>
</g>
</svg>
